<svg width="18" height="16" viewBox="0 0 18 16" fill="none" xmlns="http://www.w3.org/2000/svg">
<path d="M10 12C10 12.5523 9.55228 13 9 13C8.44772 13 8 12.5523 8 12C8 11.4477 8.44772 11 9 11C9.55228 11 10 11.4477 10 12Z" fill="#99A2AD"/>
<path fill-rule="evenodd" clip-rule="evenodd" d="M11.3757 1.36324C11.2181 1.0923 10.4897 0.000976562 8.99924 0.000976562C7.50879 0.000976562 6.79028 1.07791 6.62431 1.36324L0.523105 11.852C0.112131 12.5585 0.0354819 13.4106 0.313779 14.179C0.709815 15.2725 1.74912 16.001 2.91316 16.001H15.0868C16.2509 16.001 17.2902 15.2725 17.6862 14.179C17.9645 13.4106 17.8879 12.5585 17.4769 11.852L11.3757 1.36324ZM15.0868 14.5025C15.6192 14.5025 16.0946 14.1693 16.2757 13.6692C16.403 13.3178 16.3679 12.928 16.18 12.6049L10.0788 2.11612C10.0788 2.11612 9.74994 1.49484 8.99921 1.49484C8.24848 1.49484 7.92124 2.11612 7.92124 2.11612L1.82003 12.6049C1.63207 12.928 1.59701 13.3178 1.72429 13.6692C1.90543 14.1693 2.38077 14.5025 2.91316 14.5025H15.0868Z" fill="#99A2AD"/>
<path fill-rule="evenodd" clip-rule="evenodd" d="M8.99994 4C9.41415 4 9.74994 4.33579 9.74994 4.75V9.25C9.74994 9.66421 9.41415 10 8.99994 10C8.58573 10 8.24994 9.66421 8.24994 9.25V4.75C8.24994 4.33579 8.58573 4 8.99994 4Z" fill="#99A2AD"/>
</svg>
