<svg width="188" height="55" viewBox="0 0 188 55" fill="none" xmlns="http://www.w3.org/2000/svg">
<g clip-path="url(#clip0_168_182)">
<path d="M129.052 46.3806H125.443V41.3527H129.007V41.8016H125.91V43.6197H128.695V44.0687H125.91V45.9317H129.052V46.3806Z" fill="white"/>
<path d="M115.818 46.3806H115.35V41.3527H115.818V46.3806Z" fill="white"/>
<path d="M107.241 46.3806H103.899V41.3527H104.367V45.9317H107.219L107.241 46.3806V46.3806Z" fill="white"/>
<path d="M101.471 46.3806H97.8619V41.3527H101.426V41.8016H98.3298V43.6197H101.115V44.0687H98.3298V45.9317H101.471V46.3806V46.3806Z" fill="white"/>
<path d="M82.3117 46.3806H81.8439V41.3527H82.3117V46.3806Z" fill="white"/>
<path d="M89.2403 46.3806H88.8838L85.5421 42.1383V46.3806H85.0742V41.3527H85.4975L88.7724 45.5052V41.3527H89.2403V46.3806V46.3806Z" fill="white"/>
<path d="M93.785 46.3806H93.3172V41.8016H91.624V41.3527H95.4782V41.8016H93.785V46.3806V46.3806Z" fill="white"/>
<path d="M112.944 46.3806H109.603V41.3527H110.07V45.9317H112.922L112.944 46.3806V46.3806Z" fill="white"/>
<path d="M120.898 46.4704C119.427 46.4704 118.403 45.393 118.403 43.8891C118.403 42.6096 119.316 41.3077 120.853 41.3077C121.522 41.2827 122.175 41.5155 122.68 41.9587L122.725 42.0036L122.413 42.3627L122.368 42.3178C121.946 41.9372 121.398 41.729 120.831 41.7342C119.717 41.7342 118.87 42.6545 118.87 43.8891C118.87 45.1909 119.695 46.0439 120.898 46.0439C121.441 46.0359 121.966 45.8464 122.39 45.5052V44.1809H120.764V43.7319H122.858V45.7072L122.836 45.7296C122.3 46.2043 121.611 46.4675 120.898 46.4704V46.4704Z" fill="white"/>
<path d="M135.646 46.3806H135.29L131.948 42.1383V46.3806H131.48V41.3527H131.903L135.178 45.5052V41.3527H135.646V46.3806V46.3806Z" fill="white"/>
<path d="M140.191 46.3806H139.723V41.8016H138.03V41.3527H141.884V41.8016H140.191V46.3806V46.3806Z" fill="white"/>
<path d="M149.459 46.448C149.088 46.4542 148.72 46.3859 148.375 46.2472C148.031 46.1085 147.718 45.902 147.453 45.6399L147.409 45.595L147.721 45.2359L147.765 45.2808C147.988 45.5114 148.255 45.6941 148.55 45.8175C148.845 45.941 149.161 46.0028 149.481 45.999C150.171 45.999 150.662 45.6175 150.662 45.0788C150.662 44.6074 150.439 44.3156 149.325 44.0911C148.122 43.8442 147.632 43.4177 147.632 42.6321C147.632 41.8465 148.322 41.2853 149.258 41.2853C149.884 41.2697 150.494 41.4853 150.973 41.8914L151.018 41.9363L150.728 42.3179L150.684 42.273C150.494 42.0921 150.27 41.9513 150.025 41.8588C149.78 41.7663 149.519 41.724 149.258 41.7343C148.59 41.7343 148.122 42.0934 148.122 42.6097C148.122 43.081 148.345 43.3953 149.503 43.6197C150.662 43.8442 151.152 44.2931 151.152 45.0339C151.107 45.8868 150.439 46.448 149.459 46.448Z" fill="white"/>
<path d="M155.429 46.3806H154.961V44.4054L152.823 41.3751H153.402L153.424 41.3976L155.206 43.9564L157.011 41.3751H157.568L155.429 44.4054V46.3806Z" fill="white"/>
<path d="M161.199 46.448C160.828 46.4542 160.46 46.386 160.116 46.2472C159.772 46.1085 159.458 45.902 159.194 45.6399L159.15 45.595L159.461 45.2359L159.506 45.2808C159.729 45.5115 159.996 45.6941 160.29 45.8176C160.585 45.9411 160.902 46.0028 161.221 45.9991C161.912 45.9991 162.402 45.6175 162.402 45.0788C162.402 44.6074 162.179 44.3156 161.066 44.0911C159.863 43.8442 159.372 43.4178 159.372 42.6321C159.372 41.8465 160.063 41.2854 160.999 41.2854C161.619 41.2661 162.223 41.4825 162.692 41.8914L162.736 41.9363L162.447 42.3179L162.402 42.273C162.212 42.0921 161.988 41.9513 161.743 41.8588C161.498 41.7663 161.238 41.724 160.976 41.7343C160.308 41.7343 159.84 42.0934 159.84 42.6097C159.84 43.0811 160.063 43.3953 161.221 43.6198C162.38 43.8442 162.87 44.2932 162.87 45.0339C162.87 45.8868 162.202 46.448 161.199 46.448Z" fill="white"/>
<path d="M167.058 46.3806H166.591V41.8016H164.897V41.3527H168.752V41.8016H167.058V46.3806V46.3806Z" fill="white"/>
<path d="M174.744 46.3806H171.135V41.3527H174.7V41.8016H171.603V43.6197H174.388V44.0687H171.603V45.9317H174.744V46.3806V46.3806Z" fill="white"/>
<path d="M181.896 46.3806H181.428V42.2505L179.579 44.9441H179.49L177.641 42.2505V46.3806H177.173V41.3527H177.596L179.512 44.2033L181.428 41.3527H181.851L181.896 46.3806V46.3806Z" fill="white"/>
<path d="M186.307 46.448C185.936 46.4542 185.568 46.3859 185.224 46.2472C184.879 46.1085 184.566 45.902 184.302 45.6399L184.257 45.595L184.569 45.2359L184.614 45.2808C184.836 45.5114 185.103 45.6941 185.398 45.8175C185.693 45.941 186.01 46.0028 186.329 45.999C187.02 45.999 187.51 45.6175 187.51 45.0788C187.51 44.6074 187.287 44.3156 186.173 44.0911C184.97 43.8442 184.48 43.4177 184.48 42.6321C184.48 41.8465 185.171 41.2853 186.106 41.2853C186.732 41.2697 187.342 41.4853 187.822 41.8914L187.866 41.9363L187.577 42.3179L187.532 42.273C187.342 42.0921 187.118 41.9513 186.873 41.8588C186.628 41.7663 186.368 41.724 186.106 41.7343C185.46 41.7343 184.97 42.0934 184.97 42.6097C184.97 43.081 185.193 43.3953 186.351 43.6197C187.51 43.8442 188 44.2931 188 45.0339C187.978 45.8868 187.309 46.448 186.307 46.448Z" fill="white"/>
<path d="M187.777 31.4315C187.777 35.9432 183.723 37.5593 179.935 37.5593C176.148 37.5593 173.452 36.1676 171.96 33.4516L176.282 30.9826C176.95 32.3967 178.22 33.1598 179.935 33.1598C182.252 33.1598 182.586 32.06 182.586 31.409C182.586 30.2418 181.138 29.8378 179.311 29.2991C176.371 28.4686 172.717 27.4361 172.717 23.3508C172.717 19.1085 176.415 17.223 180.091 17.223C183.143 17.223 185.638 18.5025 187.22 20.8593L182.965 23.1713C182.252 22.0939 181.316 21.5551 180.091 21.5551C178.487 21.5551 177.908 22.4081 177.908 23.1713C177.908 24.3834 179.334 24.7425 181.138 25.2363C184.124 26.0219 187.777 27.0096 187.777 31.4315Z" fill="white"/>
<path d="M111.273 29.1195C111.999 30.7331 113.019 32.1951 114.281 33.4291C112.293 35.3831 109.778 36.7029 107.049 37.2234C104.321 37.7439 101.501 37.442 98.9415 36.3554C96.3825 35.2688 94.1984 33.4458 92.6627 31.1146C91.127 28.7835 90.3079 26.0477 90.3079 23.2498C90.3079 20.4518 91.127 17.7161 92.6627 15.3849C94.1984 13.0537 96.3825 11.2307 98.9415 10.1441C101.501 9.05754 104.321 8.7556 107.049 9.27611C109.778 9.79662 112.293 11.1165 114.281 13.0704C113.019 14.3045 111.999 15.7664 111.273 17.3801C110.081 15.9672 108.487 14.9569 106.707 14.4857C104.927 14.0144 103.046 14.1049 101.318 14.7448C99.5905 15.3848 98.0993 16.5435 97.046 18.0644C95.9927 19.5853 95.4279 21.3952 95.4279 23.2498C95.4279 25.1043 95.9927 26.9143 97.046 28.4352C98.0993 29.9561 99.5905 31.1147 101.318 31.7547C103.046 32.3947 104.927 32.4851 106.707 32.0139C108.487 31.5426 110.081 30.5324 111.273 29.1195V29.1195Z" fill="white"/>
<path d="M151.174 34.978C149.716 36.3296 147.898 37.224 145.944 37.552C143.989 37.8801 141.982 37.6276 140.168 36.8253C138.354 36.0231 136.81 34.7058 135.727 33.0345C134.643 31.3631 134.066 29.41 134.066 27.4136C134.066 25.4173 134.643 23.4642 135.727 21.7928C136.81 20.1214 138.354 18.8042 140.168 18.0019C141.982 17.1997 143.989 16.9472 145.944 17.2752C147.898 17.6033 149.716 18.4977 151.174 19.8493C149.897 21.0418 148.939 22.5395 148.389 24.2038C147.759 23.3827 146.901 22.7683 145.925 22.4382C144.948 22.1082 143.896 22.0773 142.902 22.3495C141.908 22.6218 141.017 23.1849 140.34 23.9676C139.664 24.7504 139.233 25.7177 139.102 26.7472C138.971 27.7767 139.146 28.8221 139.605 29.7514C140.064 30.6806 140.786 31.4519 141.68 31.9677C142.574 32.4835 143.599 32.7207 144.627 32.6492C145.655 32.5777 146.638 32.2009 147.453 31.5662C147.808 31.2984 148.123 30.981 148.389 30.6234C148.939 32.2878 149.897 33.7855 151.174 34.978V34.978Z" fill="white"/>
<path d="M171.715 37.043H166.145L159.239 27.3687L165.744 17.7393H171.536L164.608 27.3911L171.715 37.043Z" fill="white"/>
<path d="M158.905 9.65857H154.003V37.043H158.905V9.65857Z" fill="white"/>
<path d="M131.747 11.8808C131.747 12.5023 131.564 13.1098 131.222 13.6266C130.879 14.1434 130.392 14.5462 129.822 14.784C129.252 15.0219 128.625 15.0841 128.02 14.9628C127.415 14.8416 126.859 14.5423 126.423 14.1028C125.987 13.6633 125.69 13.1034 125.569 12.4938C125.449 11.8842 125.511 11.2524 125.747 10.6782C125.983 10.104 126.383 9.61318 126.896 9.26788C127.408 8.92258 128.011 8.73828 128.628 8.73828C129.456 8.73828 130.249 9.06936 130.834 9.65869C131.419 10.248 131.747 11.0473 131.747 11.8808V11.8808Z" fill="white"/>
<path d="M131.057 17.7393H126.155V37.043H131.057V17.7393Z" fill="white"/>
<path d="M122.145 8.53625H117.021V37.043H122.145V8.53625Z" fill="white"/>
<path d="M87.7921 11.8808C87.7921 12.5023 87.6092 13.1098 87.2665 13.6266C86.9238 14.1434 86.4367 14.5462 85.8667 14.784C85.2968 15.0219 84.6697 15.0841 84.0647 14.9628C83.4597 14.8416 82.9039 14.5423 82.4677 14.1028C82.0315 13.6633 81.7345 13.1034 81.6141 12.4938C81.4938 11.8842 81.5555 11.2524 81.7916 10.6782C82.0277 10.104 82.4274 9.61318 82.9404 9.26788C83.4533 8.92258 84.0563 8.73828 84.6732 8.73828C85.5004 8.73828 86.2937 9.06936 86.8786 9.65869C87.4635 10.248 87.7921 11.0473 87.7921 11.8808V11.8808Z" fill="white"/>
<path d="M87.1683 17.7393H82.0443V37.043H87.1683V17.7393Z" fill="white"/>
<path d="M76.8758 27.5034C76.8742 33.0483 75.2091 38.4633 72.099 43.0379C68.9889 47.6125 64.579 51.1331 59.4479 53.138C54.3167 55.1428 48.704 55.5381 43.3459 54.2722C37.9878 53.0062 33.1346 50.1381 29.423 46.044C32.6748 44.1826 35.379 41.4862 37.2603 38.2294C39.1415 34.9725 40.1326 31.2716 40.1326 27.5034C40.1326 23.7352 39.1415 20.0342 37.2603 16.7774C35.379 13.5206 32.6748 10.8242 29.423 8.9628C33.1331 4.86516 37.9865 1.9938 43.3457 0.725771C48.7049 -0.542257 54.3195 -0.147663 59.4521 1.85773C64.5848 3.86313 68.9954 7.38557 72.105 11.9625C75.2146 16.5394 76.8776 21.9569 76.8758 27.5034V27.5034Z" fill="white"/>
<path d="M18.9522 27.5034C18.9314 34.0278 20.9761 40.3889 24.7891 45.6624C21.9472 46.5915 18.9274 46.8299 15.9766 46.3581C13.0257 45.8864 10.2276 44.7178 7.81077 42.9479C5.39396 41.178 3.4271 38.8571 2.07094 36.1748C0.714781 33.4925 0.0078125 30.5249 0.0078125 27.5146C0.0078125 24.5043 0.714781 21.5367 2.07094 18.8544C3.4271 16.1721 5.39396 13.8512 7.81077 12.0813C10.2276 10.3114 13.0257 9.14285 15.9766 8.67107C18.9274 8.19929 21.9472 8.43771 24.7891 9.36682C20.9733 14.6304 18.9281 20.9854 18.9522 27.5034V27.5034Z" fill="white"/>
<path d="M28.5764 11.0952L25.9921 13.699C26.5855 12.66 27.248 11.6626 27.9749 10.7136C28.1754 10.8259 28.3759 10.9605 28.5764 11.0952Z" fill="white"/>
<path d="M35.8168 36.1676C34.0729 39.6106 31.3299 42.437 27.9526 44.2707C27.9299 44.2281 27.8997 44.1901 27.8635 44.1585L35.8168 36.1676Z" fill="white"/>
<path d="M37.8887 27.1218L25.2124 39.8937C25.0787 39.6243 24.9227 39.3325 24.7891 39.0407L37.8219 25.9097L37.8887 27.1218Z" fill="white"/>
<path d="M33.2325 14.9783L22.3384 25.9545C22.3607 25.3709 22.3384 24.8098 22.5612 24.2262V24.1364L32.4751 14.1478C32.7424 14.4172 32.9875 14.6865 33.2325 14.9783Z" fill="white"/>
<path d="M30.9825 12.8011L23.2296 20.6123C23.2519 19.8716 23.6083 19.1533 23.8534 18.4575C23.8534 18.4351 23.8757 18.4126 23.8757 18.3677L30.0913 12.1052L30.1136 12.1277C30.4032 12.3521 30.7151 12.5541 30.9825 12.8011Z" fill="white"/>
<path d="M36.3516 20.0736L22.9846 33.5414C22.7841 33.1149 22.7841 32.6884 22.7172 32.2619V32.2395L35.8837 18.9738C36.0511 19.3247 36.1998 19.6843 36.3293 20.0512L36.3516 20.0736Z" fill="white"/>
<path d="M37.4877 23.3957L23.9871 36.9981C23.8534 36.6166 23.7197 36.2125 23.5861 35.8309L37.0867 22.2285C37.2649 22.5877 37.2649 22.9917 37.4877 23.3957Z" fill="white"/>
<path d="M37.7105 30.152C37.6437 30.6682 37.5546 31.1845 37.4432 31.7008L26.7273 42.4974C26.5714 42.2505 26.3931 41.9811 26.2372 41.7118L37.7105 30.152Z" fill="white"/>
<path d="M22.3384 30.0173V28.4685L34.3465 16.3925C34.5692 16.7067 34.7475 17.0209 34.948 17.3352L22.3384 30.0173Z" fill="white"/>
</g>
<defs>
<clipPath id="clip0_168_182">
<rect width="188" height="55" fill="white"/>
</clipPath>
</defs>
</svg>
